<svg width="129" height="129" viewBox="0 0 129 129" fill="none" xmlns="http://www.w3.org/2000/svg">
<g clip-path="url(#clip0_609_11)">
<g clip-path="url(#clip1_609_11)">
<rect width="129" height="129" rx="41.0455" fill="url(#paint0_linear_609_11)"/>
<path d="M39.8717 41.5284C38.3557 41.5284 37.0842 41.0149 36.0572 39.9879C35.0302 38.9609 34.5167 37.6894 34.5167 36.1734C34.5167 34.6573 35.0302 33.3858 36.0572 32.3588C37.0842 31.3318 38.3557 30.8183 39.8717 30.8183C41.3389 30.8183 42.5859 31.3318 43.6129 32.3588C44.6399 33.3858 45.1534 34.6573 45.1534 36.1734C45.1534 37.6894 44.6399 38.9609 43.6129 39.9879C42.5859 41.0149 41.3389 41.5284 39.8717 41.5284ZM43.9797 46.8835V87.3032H35.617V46.8835H43.9797ZM49.9709 66.91C49.9709 62.8509 50.8023 59.2564 52.4651 56.1265C54.1767 52.9966 56.4752 50.5758 59.3606 48.8641C62.2949 47.1036 65.5226 46.2233 69.0437 46.2233C72.2225 46.2233 74.9857 46.8591 77.3331 48.1306C79.7294 49.3532 81.6367 50.8937 83.0549 52.7521V46.8835H91.491V87.3032H83.0549V81.2879C81.6367 83.1952 79.705 84.7846 77.2597 86.0562C74.8145 87.3277 72.0269 87.9634 68.897 87.9634C65.4248 87.9634 62.246 87.0832 59.3606 85.3226C56.4752 83.5131 54.1767 81.019 52.4651 77.8402C50.8023 74.6125 49.9709 70.9691 49.9709 66.91ZM83.0549 67.0567C83.0549 64.2691 82.4681 61.8483 81.2944 59.7943C80.1696 57.7403 78.678 56.1754 76.8196 55.0995C74.9612 54.0236 72.9561 53.4856 70.8043 53.4856C68.6525 53.4856 66.6474 54.0236 64.789 55.0995C62.9307 56.1265 61.4146 57.667 60.2409 59.721C59.1161 61.7261 58.5537 64.1224 58.5537 66.91C58.5537 69.6975 59.1161 72.1428 60.2409 74.2457C61.4146 76.3486 62.9307 77.9624 64.789 79.0872C66.6963 80.1631 68.7014 80.7011 70.8043 80.7011C72.9561 80.7011 74.9612 80.1631 76.8196 79.0872C78.678 78.0113 80.1696 76.4464 81.2944 74.3924C82.4681 72.2895 83.0549 69.8443 83.0549 67.0567Z" fill="#4001FF"/>
<g clip-path="url(#clip2_609_11)">
<rect width="129" height="129" rx="41.0455" fill="url(#paint1_linear_609_11)"/>
<path d="M39.8717 41.5284C38.3557 41.5284 37.0842 41.0149 36.0572 39.9879C35.0302 38.9609 34.5167 37.6894 34.5167 36.1734C34.5167 34.6573 35.0302 33.3858 36.0572 32.3588C37.0842 31.3318 38.3557 30.8183 39.8717 30.8183C41.3389 30.8183 42.5859 31.3318 43.6129 32.3588C44.6399 33.3858 45.1534 34.6573 45.1534 36.1734C45.1534 37.6894 44.6399 38.9609 43.6129 39.9879C42.5859 41.0149 41.3389 41.5284 39.8717 41.5284ZM43.9797 46.8835V87.3032H35.617V46.8835H43.9797ZM49.9709 66.91C49.9709 62.8509 50.8023 59.2564 52.4651 56.1265C54.1767 52.9966 56.4752 50.5758 59.3606 48.8641C62.2949 47.1036 65.5226 46.2233 69.0437 46.2233C72.2225 46.2233 74.9857 46.8591 77.3331 48.1306C79.7294 49.3532 81.6367 50.8937 83.0549 52.7521V46.8835H91.491V87.3032H83.0549V81.2879C81.6367 83.1952 79.705 84.7846 77.2597 86.0562C74.8145 87.3277 72.0269 87.9634 68.897 87.9634C65.4248 87.9634 62.246 87.0832 59.3606 85.3226C56.4752 83.5131 54.1767 81.019 52.4651 77.8402C50.8023 74.6125 49.9709 70.9691 49.9709 66.91ZM83.0549 67.0567C83.0549 64.2691 82.4681 61.8483 81.2944 59.7943C80.1696 57.7403 78.678 56.1754 76.8196 55.0995C74.9612 54.0236 72.9561 53.4856 70.8043 53.4856C68.6525 53.4856 66.6474 54.0236 64.789 55.0995C62.9307 56.1265 61.4146 57.667 60.2409 59.721C59.1161 61.7261 58.5537 64.1224 58.5537 66.91C58.5537 69.6975 59.1161 72.1428 60.2409 74.2457C61.4146 76.3486 62.9307 77.9624 64.789 79.0872C66.6963 80.1631 68.7014 80.7011 70.8043 80.7011C72.9561 80.7011 74.9612 80.1631 76.8196 79.0872C78.678 78.0113 80.1696 76.4464 81.2944 74.3924C82.4681 72.2895 83.0549 69.8443 83.0549 67.0567Z" fill="#4001FF"/>
<g clip-path="url(#clip3_609_11)">
<rect width="129" height="129" rx="41.0455" fill="url(#paint2_linear_609_11)"/>
<path d="M39.8717 41.5284C38.3557 41.5284 37.0842 41.0149 36.0572 39.9879C35.0302 38.9609 34.5167 37.6894 34.5167 36.1734C34.5167 34.6573 35.0302 33.3858 36.0572 32.3588C37.0842 31.3318 38.3557 30.8183 39.8717 30.8183C41.3389 30.8183 42.5859 31.3318 43.6129 32.3588C44.6399 33.3858 45.1534 34.6573 45.1534 36.1734C45.1534 37.6894 44.6399 38.9609 43.6129 39.9879C42.5859 41.0149 41.3389 41.5284 39.8717 41.5284ZM43.9797 46.8835V87.3032H35.617V46.8835H43.9797ZM49.9709 66.91C49.9709 62.8509 50.8023 59.2564 52.4651 56.1265C54.1767 52.9966 56.4752 50.5758 59.3606 48.8641C62.2949 47.1036 65.5226 46.2233 69.0437 46.2233C72.2225 46.2233 74.9857 46.8591 77.3331 48.1306C79.7294 49.3532 81.6367 50.8937 83.0549 52.7521V46.8835H91.491V87.3032H83.0549V81.2879C81.6367 83.1952 79.705 84.7846 77.2597 86.0562C74.8145 87.3277 72.0269 87.9634 68.897 87.9634C65.4248 87.9634 62.246 87.0832 59.3606 85.3226C56.4752 83.5131 54.1767 81.019 52.4651 77.8402C50.8023 74.6125 49.9709 70.9691 49.9709 66.91ZM83.0549 67.0567C83.0549 64.2691 82.4681 61.8483 81.2944 59.7943C80.1696 57.7403 78.678 56.1754 76.8196 55.0995C74.9612 54.0236 72.9561 53.4856 70.8043 53.4856C68.6525 53.4856 66.6474 54.0236 64.789 55.0995C62.9307 56.1265 61.4146 57.667 60.2409 59.721C59.1161 61.7261 58.5537 64.1224 58.5537 66.91C58.5537 69.6975 59.1161 72.1428 60.2409 74.2457C61.4146 76.3486 62.9307 77.9624 64.789 79.0872C66.6963 80.1631 68.7014 80.7011 70.8043 80.7011C72.9561 80.7011 74.9612 80.1631 76.8196 79.0872C78.678 78.0113 80.1696 76.4464 81.2944 74.3924C82.4681 72.2895 83.0549 69.8443 83.0549 67.0567Z" fill="#4001FF"/>
<rect width="129" height="129" rx="41.0455" fill="#A0FF29"/>
<path d="M40.3852 41.8219C38.5757 41.8219 37.0597 41.2595 35.8371 40.1347C34.6634 38.9609 34.0765 37.5183 34.0765 35.8066C34.0765 34.0949 34.6634 32.6767 35.8371 31.5519C37.0597 30.3782 38.5757 29.7913 40.3852 29.7913C42.1947 29.7913 43.6863 30.3782 44.86 31.5519C46.0826 32.6767 46.6939 34.0949 46.6939 35.8066C46.6939 37.5183 46.0826 38.9609 44.86 40.1347C43.6863 41.2595 42.1947 41.8219 40.3852 41.8219ZM45.4469 46.6634V87.3032H35.1769V46.6634H45.4469ZM50.7521 66.8366C50.7521 62.7286 51.559 59.0852 53.1728 55.9064C54.8356 52.7276 57.0608 50.2824 59.8483 48.5707C62.6848 46.8591 65.8391 46.0032 69.3114 46.0032C72.3435 46.0032 74.9843 46.6145 77.2339 47.8371C79.5325 49.0598 81.3664 50.6003 82.7357 52.4586V46.6634H93.0791V87.3032H82.7357V81.3613C81.4153 83.2686 79.5814 84.858 77.2339 86.1295C74.9354 87.3521 72.2701 87.9634 69.238 87.9634C65.8147 87.9634 62.6848 87.0832 59.8483 85.3226C57.0608 83.562 54.8356 81.0923 53.1728 77.9135C51.559 74.6858 50.7521 70.9935 50.7521 66.8366ZM82.7357 66.9833C82.7357 64.4892 82.2467 62.3618 81.2686 60.6013C80.2905 58.7918 78.9701 57.4225 77.3073 56.4933C75.6445 55.5152 73.8595 55.0261 71.9522 55.0261C70.045 55.0261 68.2844 55.4907 66.6705 56.4199C65.0567 57.3491 63.7362 58.7184 62.7092 60.5279C61.7312 62.2885 61.2421 64.3914 61.2421 66.8366C61.2421 69.2818 61.7312 71.4337 62.7092 73.292C63.7362 75.1015 65.0567 76.4953 66.6705 77.4734C68.3333 78.4515 70.0939 78.9405 71.9522 78.9405C73.8595 78.9405 75.6445 78.4759 77.3073 77.5467C78.9701 76.5686 80.2905 75.1993 81.2686 73.4387C82.2467 71.6293 82.7357 69.4775 82.7357 66.9833Z" fill="#4001FF"/>
</g>
</g>
</g>
</g>
<defs>
<linearGradient id="paint0_linear_609_11" x1="80.5033" y1="127.577" x2="-25.4437" y2="14.6804" gradientUnits="userSpaceOnUse">
<stop offset="0.250034" stop-color="#A0FF29"/>
<stop offset="1" stop-color="white"/>
</linearGradient>
<linearGradient id="paint1_linear_609_11" x1="80.5033" y1="127.577" x2="-25.4437" y2="14.6804" gradientUnits="userSpaceOnUse">
<stop offset="0.250034" stop-color="#A0FF29"/>
<stop offset="1" stop-color="white"/>
</linearGradient>
<linearGradient id="paint2_linear_609_11" x1="80.5033" y1="127.577" x2="-25.4437" y2="14.6804" gradientUnits="userSpaceOnUse">
<stop offset="0.250034" stop-color="#A0FF29"/>
<stop offset="1" stop-color="white"/>
</linearGradient>
<clipPath id="clip0_609_11">
<rect width="129" height="129" fill="white"/>
</clipPath>
<clipPath id="clip1_609_11">
<rect width="129" height="129" rx="41.0455" fill="white"/>
</clipPath>
<clipPath id="clip2_609_11">
<rect width="129" height="129" rx="41.0455" fill="white"/>
</clipPath>
<clipPath id="clip3_609_11">
<rect width="129" height="129" rx="41.0455" fill="white"/>
</clipPath>
</defs>
</svg>
